<svg xmlns="http://www.w3.org/2000/svg" xml:space="preserve" id="hot-coffee" width="91" height="91" x="0" y="0" version="1.1" viewBox="0 0 91 91">
  <path d="M20.962 18.615c1.838 1.531 2.771 3.168 2.776 4.866.008 2.954-2.75 5.312-2.776 5.333a1.125 1.125 0 1 0 1.441 1.728c.146-.122 3.586-3.035 3.586-7.05 0-2.401-1.207-4.624-3.586-6.606-1.838-1.532-2.772-3.169-2.777-4.867-.007-2.955 2.751-5.311 2.779-5.334a1.124 1.124 0 0 0 .142-1.582 1.122 1.122 0 0 0-1.584-.145c-.146.122-3.586 3.033-3.586 7.048-.001 2.403 1.206 4.625 3.585 6.609zM40.241 18.615c1.838 1.531 2.772 3.168 2.777 4.866.008 2.954-2.751 5.312-2.777 5.333a1.124 1.124 0 1 0 1.441 1.728c.146-.122 3.587-3.035 3.586-7.05 0-2.401-1.207-4.624-3.586-6.606-1.838-1.531-2.772-3.169-2.776-4.867-.007-2.94 2.724-5.287 2.778-5.333a1.125 1.125 0 0 0-1.441-1.728c-.146.122-3.585 3.033-3.586 7.048-.002 2.403 1.204 4.625 3.584 6.609zM59.6 18.615c1.838 1.531 2.771 3.168 2.775 4.866.008 2.954-2.75 5.312-2.775 5.333a1.124 1.124 0 1 0 1.439 1.728c.146-.122 3.587-3.035 3.586-7.05 0-2.401-1.206-4.624-3.586-6.606-1.838-1.532-2.771-3.169-2.776-4.867-.007-2.94 2.724-5.287 2.778-5.333.477-.398.54-1.106.143-1.583a1.122 1.122 0 0 0-1.584-.145c-.146.122-3.586 3.033-3.587 7.048 0 2.403 1.206 4.625 3.587 6.609zM78.31 38.932h-3.992v-3.254c0-.621-.504-1.125-1.125-1.125H8.001c-.621 0-1.125.504-1.125 1.125v30.958c0 5.25 2.853 9.836 7.082 12.32H5a1.127 1.127 0 0 0-1.034 1.569c.063.146 1.578 3.619 4.771 5.607.178.111.384.17.595.17h62.404a.998.998 0 0 0 .189-.016c2.885-.492 5.726-5.102 6.04-5.625a1.125 1.125 0 0 0-.963-1.705h-9.766c3.979-2.338 6.74-6.533 7.052-11.395h4.022c4.861 0 8.816-3.955 8.816-8.818V47.746c0-4.86-3.955-8.814-8.816-8.814zm-6.685 45.121H9.665c-1.219-.828-2.131-1.943-2.737-2.846h67.938c-1.034 1.342-2.303 2.627-3.241 2.846zm.442-17.416c0 6.641-5.401 12.043-12.04 12.043H21.168c-6.64 0-12.042-5.402-12.042-12.043V49.676h57.375a1.125 1.125 0 0 0 0-2.25H9.126v-3.123h57.375a1.125 1.125 0 0 0 0-2.25H9.126v-5.25h62.941v29.834zm12.809-7.893c0 3.621-2.946 6.568-6.566 6.568h-3.992v-24.13h3.992a6.572 6.572 0 0 1 6.566 6.564v10.998z"></path>
</svg>
