<svg xmlns="http://www.w3.org/2000/svg" xml:space="preserve" width="91" height="91" id="milk-package">
  <path d="M71.521 1.637 62.58 2.91c-2.137.017-6.8 1.714-7.439 6.818l-2.449 18.896H17.68a2.629 2.629 0 0 0-2.625 2.625v55.5a2.629 2.629 0 0 0 2.625 2.625h51a2.629 2.629 0 0 0 2.625-2.625v-55.5a2.629 2.629 0 0 0-2.625-2.625H54.96l2.413-18.612c.471-3.762 4.02-4.899 5.266-4.853.061.001.119-.003.178-.012l9.021-1.285a1.124 1.124 0 1 0-.317-2.225zM17.305 86.75v-55.5c0-.207.168-.375.375-.375h39.375v56.25H17.68a.375.375 0 0 1-.375-.375zm51.375.375h-9.375V35.833l3.864 7.911c.036.075.087.139.138.202.013.016.02.034.033.05.091.102.198.179.314.241.013.006.02.018.031.023.041.021.084.03.126.045.029.01.057.022.087.03.093.024.187.039.28.039h.002c.094 0 .188-.015.28-.039.03-.008.058-.021.087-.03.042-.015.085-.024.126-.045.012-.006.019-.018.031-.023.116-.063.224-.14.314-.241.014-.016.021-.034.033-.05.051-.063.102-.127.138-.202l3.864-7.911V86.75a.372.372 0 0 1-.373.375zm.28-56.117c-.05.062-.108.113-.144.188l-4.637 9.491-4.637-9.491a1.123 1.123 0 0 0-.238-.313v-.008h9.375c.114 0 .212.053.281.133z"></path>
  <path d="M48.636 64.913c-.202-1.687-.729-3.428-1.661-5.48-1.364-3.001-3.19-5.982-5.921-9.67a72.842 72.842 0 0 0-2.832-3.59c-.119-.142-.482-.573-1.101-.573-.423 0-.797.197-1.111.582-2.108 2.577-3.734 4.754-5.116 6.854-1.542 2.343-3.463 5.493-4.647 9.077-.958 2.89-.925 5.477.098 7.909 1.729 4.117 5.972 6.777 10.809 6.777.647 0 1.302-.049 1.947-.146 5.488-.816 9.713-5.47 9.616-10.658l-.022-.337c-.014-.249-.03-.498-.059-.745zm-9.866 9.516c-.536.08-1.08.12-1.616.12-3.929 0-7.357-2.119-8.734-5.399-.803-1.909-.815-3.979-.036-6.331 1.101-3.335 2.925-6.319 4.39-8.547 1.199-1.82 2.593-3.71 4.354-5.896.691.846 1.39 1.745 2.119 2.728 2.632 3.554 4.384 6.409 5.68 9.26.832 1.835 1.301 3.366 1.475 4.817.024.203.036.408.048.613l.021.308c.074 4.015-3.309 7.672-7.701 8.327z"></path>
  <path d="M34.904 69.684c-1.613-.512-2.68-1.909-2.594-3.396a1.125 1.125 0 0 0-1.058-1.188c-.608-.017-1.151.438-1.188 1.058-.146 2.517 1.564 4.849 4.159 5.672a1.122 1.122 0 0 0 1.413-.732 1.125 1.125 0 0 0-.732-1.414zM36.765 70.959c-.21.2-.33.49-.33.79s.12.58.33.8c.21.21.5.33.79.33s.58-.12.8-.33c.21-.22.33-.51.33-.8 0-.3-.12-.59-.33-.79-.43-.431-1.17-.42-1.59 0z"></path>
</svg>
